# xmcd CD database file
#
# Track frame offsets:
#	150
#	15913
#	27338
#	38609
#	52985
#	69528
#	83657
#	93460
#	104454
#	114451
#	129709
#	147610
#	167828
#	188708
#	199434
#
# Disc length: 2911 seconds
#
# Revision: 0
# Processed by: cddbd v1.5.2PL0 Copyright (c) Steve Scherf et al.
# Submitted via: CDex 1.51
#
DISCID=cc0b5d0f
DTITLE=giusy ferreri - non ti scordar di me
DYEAR=2008
DGENRE=Country
TTITLE0=Giusy Ferreri - Non ti scordar mai di me
TTITLE1=Giusy Ferreri - Remedios
TTITLE2=Giusy Ferreri - Che cosa c'è
TTITLE3=Giusy Ferreri - La bambola
TTITLE4=Giusy Ferreri - Ma che freddo fa
TTITLE5=Giusy Ferreri - Insieme a te non ci sto più
TTITLE6=07 - Bang bang (X Factor) Sei bravissima
TTITLE7=08 - Besame mucho (X Factor) Sei bravissima
TTITLE8=09 - History repeating (X Factor) Sei bravissima
TTITLE9=10 - i was made to love magic
TTITLE10=11 - Il party (X Factor) Sei bravissima
TTITLE11=12 - Pensieri (X Factor) Sei bravissima
TTITLE12=13 - Senza Promesse
TTITLE13=14 - These boots are made for walking (X Factor) Sei bravissima
TTITLE14=15 - E la luna bussò (X Factor) Sei bravissima
EXTD=YEAR: 2008
EXTT0=
EXTT1=
EXTT2=
EXTT3=
EXTT4=
EXTT5=
EXTT6=
EXTT7=
EXTT8=
EXTT9=
EXTT10=
EXTT11=
EXTT12=
EXTT13=
EXTT14=
PLAYORDER=
